<svg width="21" height="20" viewBox="0 0 21 20" fill="none" xmlns="http://www.w3.org/2000/svg">
<path d="M20.054 9.85175C20.054 10.6873 19.3577 11.3837 18.5685 11.3837H11.8839V18.0683C11.8839 18.8575 11.1875 19.5074 10.3984 19.5074C9.5628 19.5074 8.9129 18.8575 8.9129 18.0683V11.3837H2.22823C1.39264 11.3837 0.742742 10.6873 0.742742 9.85175C0.742742 9.06258 1.39264 8.41268 2.22823 8.41268H8.9129V1.72801C8.9129 0.892423 9.5628 0.196103 10.3984 0.196103C11.1875 0.196103 11.8839 0.892423 11.8839 1.72801V8.41268H18.5685C19.3577 8.36626 20.054 9.06258 20.054 9.85175Z" fill="#66C206"/>
</svg>
